<mxfile host="app.diagrams.net" modified="2023-10-31T15:35:06.433Z" agent="Mozilla/5.0 (X11; Linux x86_64) AppleWebKit/537.36 (KHTML, like Gecko) Chrome/118.0.0.0 Safari/537.36" etag="tto8yBqxHXjnqZmupnSV" version="22.0.8" type="device">
  <diagram name="Page-1" id="pImxxgkzjdJv5OVogXcW">
    <mxGraphModel dx="1259" dy="692" grid="1" gridSize="10" guides="1" tooltips="1" connect="1" arrows="1" fold="1" page="1" pageScale="1" pageWidth="850" pageHeight="1100" math="0" shadow="0">
      <root>
        <mxCell id="0" />
        <mxCell id="1" parent="0" />
        <mxCell id="qPXU1aCihd12mrtZxSVJ-7" value="Pelicula" style="swimlane;fontStyle=1;align=center;verticalAlign=top;childLayout=stackLayout;horizontal=1;startSize=26;horizontalStack=0;resizeParent=1;resizeParentMax=0;resizeLast=0;collapsible=1;marginBottom=0;whiteSpace=wrap;html=1;" vertex="1" parent="1">
          <mxGeometry x="160" y="70" width="200" height="240" as="geometry" />
        </mxCell>
        <mxCell id="qPXU1aCihd12mrtZxSVJ-8" value="- name: String&lt;br&gt;- director: String&lt;br&gt;- genre: enum&lt;br&gt;- duration: int&lt;br&gt;- year: Date&lt;br&gt;- rate: double&amp;nbsp;" style="text;strokeColor=none;fillColor=none;align=left;verticalAlign=top;spacingLeft=4;spacingRight=4;overflow=hidden;rotatable=0;points=[[0,0.5],[1,0.5]];portConstraint=eastwest;whiteSpace=wrap;html=1;" vertex="1" parent="qPXU1aCihd12mrtZxSVJ-7">
          <mxGeometry y="26" width="200" height="94" as="geometry" />
        </mxCell>
        <mxCell id="qPXU1aCihd12mrtZxSVJ-9" value="" style="line;strokeWidth=1;fillColor=none;align=left;verticalAlign=middle;spacingTop=-1;spacingLeft=3;spacingRight=3;rotatable=0;labelPosition=right;points=[];portConstraint=eastwest;strokeColor=inherit;" vertex="1" parent="qPXU1aCihd12mrtZxSVJ-7">
          <mxGeometry y="120" width="200" height="8" as="geometry" />
        </mxCell>
        <mxCell id="qPXU1aCihd12mrtZxSVJ-10" value="+ constructor()&lt;br&gt;- setters()&lt;br&gt;+ getters()&lt;br&gt;+ ToString()&lt;br&gt;- esPeliculaEpica(): boolean&lt;br&gt;- calcularValoracion(): String&lt;br&gt;- esSimilar(Pelicula): boolean" style="text;strokeColor=none;fillColor=none;align=left;verticalAlign=top;spacingLeft=4;spacingRight=4;overflow=hidden;rotatable=0;points=[[0,0.5],[1,0.5]];portConstraint=eastwest;whiteSpace=wrap;html=1;" vertex="1" parent="qPXU1aCihd12mrtZxSVJ-7">
          <mxGeometry y="128" width="200" height="112" as="geometry" />
        </mxCell>
        <mxCell id="qPXU1aCihd12mrtZxSVJ-12" value="«&lt;b&gt;enumGenre&lt;/b&gt;»&lt;br&gt;ACCION&lt;br&gt;COMEDIA&lt;br&gt;DRAMA&lt;br&gt;SUSPENSO" style="html=1;whiteSpace=wrap;" vertex="1" parent="1">
          <mxGeometry x="480" y="30" width="160" height="80" as="geometry" />
        </mxCell>
        <mxCell id="qPXU1aCihd12mrtZxSVJ-13" value="«&lt;b&gt;Calificacion&lt;/b&gt;»&lt;br&gt;0,2 mala&lt;br&gt;(2,5 mala&lt;br&gt;(5,7 regular&lt;br&gt;(7,8 buena&lt;br&gt;(8,10 excelente" style="html=1;whiteSpace=wrap;" vertex="1" parent="1">
          <mxGeometry x="480" y="120" width="160" height="100" as="geometry" />
        </mxCell>
      </root>
    </mxGraphModel>
  </diagram>
</mxfile>
